<svg xmlns="http://www.w3.org/2000/svg" version="1.1" xmlns:xlink="http://www.w3.org/1999/xlink" xmlns:svgjs="http://svgjs.dev/svgjs" width="1440" height="560" preserveAspectRatio="none" viewBox="0 0 1440 560"><g mask="url(&quot;#SvgjsMask1547&quot;)" fill="none"><rect width="1440" height="560" x="0" y="0" fill="url(&quot;#SvgjsRadialGradient1548&quot;)"></rect><path d="M1440 0L1171.67 0L1440 127.27z" fill="rgba(255, 255, 255, .1)"></path><path d="M1171.67 0L1440 127.27L1440 354.09L691.3700000000001 0z" fill="rgba(255, 255, 255, .075)"></path><path d="M691.37 0L1440 354.09L1440 406.38L664.62 0z" fill="rgba(255, 255, 255, .05)"></path><path d="M664.62 0L1440 406.38L1440 499.95L442.48 0z" fill="rgba(255, 255, 255, .025)"></path><path d="M0 560L568.12 560L0 486.89z" fill="rgba(0, 0, 0, .1)"></path><path d="M0 486.89L568.12 560L643.7 560L0 338.86z" fill="rgba(0, 0, 0, .075)"></path><path d="M0 338.86L643.7 560L957.4100000000001 560L0 209.89000000000001z" fill="rgba(0, 0, 0, .05)"></path><path d="M0 209.89L957.4100000000001 560L992.9100000000001 560L0 123.19999999999999z" fill="rgba(0, 0, 0, .025)"></path></g><defs><mask id="SvgjsMask1547"><rect width="1440" height="560" fill="#ffffff"></rect></mask><radialGradient cx="100%" cy="100%" r="1545.06" gradientUnits="userSpaceOnUse" id="SvgjsRadialGradient1548"><stop stop-color="#0e2a47" offset="0"></stop><stop stop-color="rgba(255, 255, 255, 0.55)" offset="1"></stop></radialGradient></defs></svg>